<svg width="42" height="48" viewBox="0 0 42 48" fill="none" xmlns="http://www.w3.org/2000/svg">
<path d="M16.7631 1.71262C18.1709 1.54787 19.6836 1.45801 21.2562 1.45801C28.6998 1.45801 34.7356 3.46494 34.7356 5.95113C34.7356 8.43732 28.6998 10.4442 21.2562 10.4442C13.8126 10.4442 7.77686 8.43732 7.77686 5.95113C7.77686 4.88776 8.90014 3.89927 10.7723 3.12046" stroke="#38004D" stroke-width="2" stroke-miterlimit="10" stroke-linecap="round" stroke-linejoin="round"/>
<path d="M34.7356 13.4395C34.7356 15.9256 28.6998 17.9326 21.2562 17.9326C13.8126 17.9326 7.77686 15.9256 7.77686 13.4395" stroke="#38004D" stroke-width="2" stroke-miterlimit="10" stroke-linecap="round" stroke-linejoin="round"/>
<path d="M7.77686 5.95117V13.4397" stroke="#38004D" stroke-width="2" stroke-miterlimit="10" stroke-linecap="round" stroke-linejoin="round"/>
<path d="M34.7358 5.95117V13.4397" stroke="#38004D" stroke-width="2" stroke-miterlimit="10" stroke-linecap="round" stroke-linejoin="round"/>
<path d="M31.3058 16.4351C33.4326 17.2288 34.7356 18.2772 34.7356 19.4305C34.7356 21.9167 28.6998 23.9236 21.2562 23.9236C13.8126 23.9236 7.77686 21.9167 7.77686 19.4305C7.77686 18.2772 9.07986 17.2288 11.2066 16.4351" stroke="#38004D" stroke-width="2" stroke-miterlimit="10" stroke-linecap="round" stroke-linejoin="round"/>
<path d="M34.7356 26.9189C34.7356 29.4051 28.6998 31.4121 21.2562 31.4121C13.8126 31.4121 7.77686 29.4051 7.77686 26.9189" stroke="#38004D" stroke-width="2" stroke-miterlimit="10" stroke-linecap="round" stroke-linejoin="round"/>
<path d="M7.77686 19.4307V26.9192" stroke="#38004D" stroke-width="2" stroke-miterlimit="10" stroke-linecap="round" stroke-linejoin="round"/>
<path d="M34.7358 19.4307V26.9192" stroke="#38004D" stroke-width="2" stroke-miterlimit="10" stroke-linecap="round" stroke-linejoin="round"/>
<path d="M21.2563 31.4121V40.3984" stroke="#38004D" stroke-width="2" stroke-miterlimit="10" stroke-linecap="round" stroke-linejoin="round"/>
<path d="M12.2703 30.2588V34.4074L4.78174 37.4029V40.3983" stroke="#38004D" stroke-width="2" stroke-miterlimit="10" stroke-linecap="round" stroke-linejoin="round"/>
<path d="M37.7312 40.3983V37.4029L30.2427 34.4074V30.2588" stroke="#38004D" stroke-width="2" stroke-miterlimit="10" stroke-linecap="round" stroke-linejoin="round"/>
<path d="M21.2562 46.3893C22.9105 46.3893 24.2516 45.0482 24.2516 43.3939C24.2516 41.7395 22.9105 40.3984 21.2562 40.3984C19.6018 40.3984 18.2607 41.7395 18.2607 43.3939C18.2607 45.0482 19.6018 46.3893 21.2562 46.3893Z" stroke="#9F85EC" stroke-width="2" stroke-miterlimit="10" stroke-linecap="round" stroke-linejoin="round"/>
<path d="M4.78155 46.3893C6.43587 46.3893 7.77696 45.0482 7.77696 43.3939C7.77696 41.7395 6.43587 40.3984 4.78155 40.3984C3.12723 40.3984 1.78613 41.7395 1.78613 43.3939C1.78613 45.0482 3.12723 46.3893 4.78155 46.3893Z" stroke="#9F85EC" stroke-width="2" stroke-miterlimit="10" stroke-linecap="round" stroke-linejoin="round"/>
<path d="M37.7313 46.3893C39.3856 46.3893 40.7267 45.0482 40.7267 43.3939C40.7267 41.7395 39.3856 40.3984 37.7313 40.3984C36.0769 40.3984 34.7358 41.7395 34.7358 43.3939C34.7358 45.0482 36.0769 46.3893 37.7313 46.3893Z" stroke="#9F85EC" stroke-width="2" stroke-miterlimit="10" stroke-linecap="round" stroke-linejoin="round"/>
</svg>
