<svg width="48" height="47" viewBox="0 0 48 47" fill="none" xmlns="http://www.w3.org/2000/svg">
<path d="M13.4397 15.9771H4.45343C2.80595 15.9771 1.45801 14.6292 1.45801 12.9817V3.99542C1.45801 2.34794 2.80595 1 4.45343 1H13.4397C15.0872 1 16.4351 2.34794 16.4351 3.99542V12.9817C16.4351 14.6292 15.0872 15.9771 13.4397 15.9771Z" stroke="#38004D" stroke-width="2" stroke-miterlimit="10" stroke-linecap="round" stroke-linejoin="round"/>
<path d="M43.3938 15.9771H34.4075C32.76 15.9771 31.4121 14.6292 31.4121 12.9817V3.99542C31.4121 2.34794 32.76 1 34.4075 1H43.3938C45.0413 1 46.3892 2.34794 46.3892 3.99542V12.9817C46.3892 14.6292 45.0413 15.9771 43.3938 15.9771Z" stroke="#38004D" stroke-width="2" stroke-miterlimit="10" stroke-linecap="round" stroke-linejoin="round"/>
<path d="M13.4397 45.9312H4.45343C2.80595 45.9312 1.45801 44.5833 1.45801 42.9358V33.9495C1.45801 32.302 2.80595 30.9541 4.45343 30.9541H13.4397C15.0872 30.9541 16.4351 32.302 16.4351 33.9495V42.9358C16.4351 44.5833 15.0872 45.9312 13.4397 45.9312Z" stroke="#38004D" stroke-width="2" stroke-miterlimit="10" stroke-linecap="round" stroke-linejoin="round"/>
<path d="M46.3892 39.9404V42.9358C46.3892 44.5833 45.0413 45.9312 43.3938 45.9312H34.4075C32.76 45.9312 31.4121 44.5833 31.4121 42.9358V33.9495C31.4121 32.302 32.76 30.9541 34.4075 30.9541H43.3938C45.0413 30.9541 46.3892 32.302 46.3892 33.9495" stroke="#38004D" stroke-width="2" stroke-miterlimit="10" stroke-linecap="round" stroke-linejoin="round"/>
<path d="M8.94629 38.4429H28.4165" stroke="#9F85EC" stroke-width="2" stroke-miterlimit="10" stroke-linecap="round" stroke-linejoin="round"/>
<path d="M25.4214 35.4473L28.4168 38.4427L25.4214 41.4381" stroke="#9F85EC" stroke-width="2" stroke-miterlimit="10" stroke-linecap="round" stroke-linejoin="round"/>
<path d="M38.9004 38.4429V18.9727" stroke="#9F85EC" stroke-width="2" stroke-miterlimit="10" stroke-linecap="round" stroke-linejoin="round"/>
<path d="M35.9053 21.9681L38.9007 18.9727L41.8961 21.9681" stroke="#9F85EC" stroke-width="2" stroke-miterlimit="10" stroke-linecap="round" stroke-linejoin="round"/>
<path d="M8.94629 8.48828V27.9585" stroke="#9F85EC" stroke-width="2" stroke-miterlimit="10" stroke-linecap="round" stroke-linejoin="round"/>
<path d="M11.942 24.9634L8.94659 27.9588L5.95117 24.9634" stroke="#9F85EC" stroke-width="2" stroke-miterlimit="10" stroke-linecap="round" stroke-linejoin="round"/>
<path d="M15.5513 15.0938L23.9235 23.4659L32.2957 31.8381" stroke="#38004D" stroke-width="2" stroke-miterlimit="10" stroke-linecap="round" stroke-linejoin="round"/>
<path d="M32.2957 15.0938L23.9235 23.4659L15.5513 31.8381" stroke="#38004D" stroke-width="2" stroke-miterlimit="10" stroke-linecap="round" stroke-linejoin="round"/>
<path d="M38.901 9.98614C39.7282 9.98614 40.3987 9.3156 40.3987 8.48843C40.3987 7.66127 39.7282 6.99072 38.901 6.99072C38.0739 6.99072 37.4033 7.66127 37.4033 8.48843C37.4033 9.3156 38.0739 9.98614 38.901 9.98614Z" stroke="#38004D" stroke-width="2" stroke-miterlimit="10" stroke-linecap="round" stroke-linejoin="round"/>
</svg>
