<svg width="268" height="268" viewBox="0 0 268 268" fill="none" xmlns="http://www.w3.org/2000/svg">
<g opacity="0.6" filter="url(#filter0_f)">
<rect x="95.6489" y="94.4658" width="78.2137" height="86.5343" rx="18" fill="url(#paint0_linear)"/>
</g>
<g filter="url(#filter1_bd)">
<rect x="84" y="72" width="99.8473" height="99.8473" rx="25" fill="#E7E7E7" style="mix-blend-mode:screen"/>
</g>
<path d="M146.571 140.562H127.101C125.453 140.562 124.105 139.214 124.105 137.567V136.069" stroke="#9F85EC" stroke-width="2" stroke-miterlimit="10" stroke-linecap="round" stroke-linejoin="round"/>
<path d="M119.612 106.369C121.02 106.204 122.533 106.114 124.105 106.114C131.549 106.114 137.585 108.121 137.585 110.607C137.585 113.094 131.549 115.101 124.105 115.101C116.662 115.101 110.626 113.094 110.626 110.607C110.626 109.544 111.749 108.556 113.621 107.777" stroke="#38004D" stroke-width="2" stroke-miterlimit="10" stroke-linecap="round" stroke-linejoin="round"/>
<path d="M137.585 118.096C137.585 120.582 131.549 122.589 124.105 122.589C116.662 122.589 110.626 120.582 110.626 118.096" stroke="#38004D" stroke-width="2" stroke-miterlimit="10" stroke-linecap="round" stroke-linejoin="round"/>
<path d="M110.626 110.607V118.096" stroke="#38004D" stroke-width="2" stroke-miterlimit="10" stroke-linecap="round" stroke-linejoin="round"/>
<path d="M137.585 110.607V118.096" stroke="#38004D" stroke-width="2" stroke-miterlimit="10" stroke-linecap="round" stroke-linejoin="round"/>
<path d="M134.155 121.091C136.282 121.885 137.585 122.933 137.585 124.087C137.585 126.573 131.549 128.58 124.105 128.58C116.662 128.58 110.626 126.573 110.626 124.087C110.626 122.933 111.929 121.885 114.056 121.091" stroke="#38004D" stroke-width="2" stroke-miterlimit="10" stroke-linecap="round" stroke-linejoin="round"/>
<path d="M137.585 131.575C137.585 134.061 131.549 136.068 124.105 136.068C116.662 136.068 110.626 134.061 110.626 131.575" stroke="#38004D" stroke-width="2" stroke-miterlimit="10" stroke-linecap="round" stroke-linejoin="round"/>
<path d="M110.626 124.087V131.575" stroke="#38004D" stroke-width="2" stroke-miterlimit="10" stroke-linecap="round" stroke-linejoin="round"/>
<path d="M137.585 124.087V131.575" stroke="#38004D" stroke-width="2" stroke-miterlimit="10" stroke-linecap="round" stroke-linejoin="round"/>
<path d="M151.064 107.612V116.599" stroke="#9F85EC" stroke-width="2" stroke-miterlimit="10" stroke-linecap="round" stroke-linejoin="round"/>
<path d="M151.064 125.585V134.571" stroke="#9F85EC" stroke-width="2" stroke-miterlimit="10" stroke-linecap="round" stroke-linejoin="round"/>
<path d="M155.557 125.585V116.599H146.571V125.585H155.557Z" stroke="#38004D" stroke-width="2" stroke-miterlimit="10" stroke-linecap="round" stroke-linejoin="round"/>
<path d="M155.557 143.557V134.571H146.571V143.557H155.557Z" stroke="#38004D" stroke-width="2" stroke-miterlimit="10" stroke-linecap="round" stroke-linejoin="round"/>
<path d="M124.105 109.11V104.617C124.105 102.969 125.453 101.621 127.101 101.621H146.571" stroke="#9F85EC" stroke-width="2" stroke-miterlimit="10" stroke-linecap="round" stroke-linejoin="round"/>
<path d="M155.557 107.612V98.626H146.571V107.612H155.557Z" stroke="#38004D" stroke-width="2" stroke-miterlimit="10" stroke-linecap="round" stroke-linejoin="round"/>
<defs>
<filter id="filter0_f" x="81.6489" y="80.4658" width="106.214" height="114.534" filterUnits="userSpaceOnUse" color-interpolation-filters="sRGB">
<feFlood flood-opacity="0" result="BackgroundImageFix"/>
<feBlend mode="normal" in="SourceGraphic" in2="BackgroundImageFix" result="shape"/>
<feGaussianBlur stdDeviation="7" result="effect1_foregroundBlur"/>
</filter>
<filter id="filter1_bd" x="0" y="0" width="267.847" height="267.847" filterUnits="userSpaceOnUse" color-interpolation-filters="sRGB">
<feFlood flood-opacity="0" result="BackgroundImageFix"/>
<feGaussianBlur in="BackgroundImage" stdDeviation="19"/>
<feComposite in2="SourceAlpha" operator="in" result="effect1_backgroundBlur"/>
<feColorMatrix in="SourceAlpha" type="matrix" values="0 0 0 0 0 0 0 0 0 0 0 0 0 0 0 0 0 0 127 0" result="hardAlpha"/>
<feMorphology radius="10" operator="erode" in="SourceAlpha" result="effect2_dropShadow"/>
<feOffset dy="12"/>
<feGaussianBlur stdDeviation="47"/>
<feColorMatrix type="matrix" values="0 0 0 0 0 0 0 0 0 0 0 0 0 0 0 0 0 0 0.06 0"/>
<feBlend mode="normal" in2="effect1_backgroundBlur" result="effect2_dropShadow"/>
<feBlend mode="normal" in="SourceGraphic" in2="effect2_dropShadow" result="shape"/>
</filter>
<linearGradient id="paint0_linear" x1="95.6489" y1="181" x2="176.421" y2="181" gradientUnits="userSpaceOnUse">
<stop stop-color="#F2A1FF"/>
<stop offset="1" stop-color="#8532FD"/>
</linearGradient>
</defs>
</svg>
