<svg width="268" height="268" viewBox="0 0 268 268" fill="none" xmlns="http://www.w3.org/2000/svg">
<g opacity="0.6" filter="url(#filter0_f)">
<rect x="94.8169" y="94.4658" width="78.2137" height="86.5343" rx="18" fill="url(#paint0_linear)"/>
</g>
<g filter="url(#filter1_bd)">
<rect x="84" y="72" width="99.8473" height="99.8473" rx="25" fill="#E7E7E7" style="mix-blend-mode:screen"/>
</g>
<path d="M123.44 113.977H114.453C112.806 113.977 111.458 112.629 111.458 110.982V101.995C111.458 100.348 112.806 99 114.453 99H123.44C125.087 99 126.435 100.348 126.435 101.995V110.982C126.435 112.629 125.087 113.977 123.44 113.977Z" stroke="#38004D" stroke-width="2" stroke-miterlimit="10" stroke-linecap="round" stroke-linejoin="round"/>
<path d="M153.394 113.977H144.408C142.76 113.977 141.412 112.629 141.412 110.982V101.995C141.412 100.348 142.76 99 144.408 99H153.394C155.041 99 156.389 100.348 156.389 101.995V110.982C156.389 112.629 155.041 113.977 153.394 113.977Z" stroke="#38004D" stroke-width="2" stroke-miterlimit="10" stroke-linecap="round" stroke-linejoin="round"/>
<path d="M123.44 143.931H114.453C112.806 143.931 111.458 142.583 111.458 140.936V131.95C111.458 130.302 112.806 128.954 114.453 128.954H123.44C125.087 128.954 126.435 130.302 126.435 131.95V140.936C126.435 142.583 125.087 143.931 123.44 143.931Z" stroke="#38004D" stroke-width="2" stroke-miterlimit="10" stroke-linecap="round" stroke-linejoin="round"/>
<path d="M156.389 137.94V140.936C156.389 142.583 155.041 143.931 153.394 143.931H144.408C142.76 143.931 141.412 142.583 141.412 140.936V131.95C141.412 130.302 142.76 128.954 144.408 128.954H153.394C155.041 128.954 156.389 130.302 156.389 131.95" stroke="#38004D" stroke-width="2" stroke-miterlimit="10" stroke-linecap="round" stroke-linejoin="round"/>
<path d="M118.946 136.443H138.417" stroke="#9F85EC" stroke-width="2" stroke-miterlimit="10" stroke-linecap="round" stroke-linejoin="round"/>
<path d="M135.421 133.447L138.417 136.443L135.421 139.438" stroke="#9F85EC" stroke-width="2" stroke-miterlimit="10" stroke-linecap="round" stroke-linejoin="round"/>
<path d="M148.9 136.443V116.973" stroke="#9F85EC" stroke-width="2" stroke-miterlimit="10" stroke-linecap="round" stroke-linejoin="round"/>
<path d="M145.905 119.968L148.901 116.973L151.896 119.968" stroke="#9F85EC" stroke-width="2" stroke-miterlimit="10" stroke-linecap="round" stroke-linejoin="round"/>
<path d="M118.946 106.488V125.959" stroke="#9F85EC" stroke-width="2" stroke-miterlimit="10" stroke-linecap="round" stroke-linejoin="round"/>
<path d="M121.942 122.963L118.947 125.959L115.951 122.963" stroke="#9F85EC" stroke-width="2" stroke-miterlimit="10" stroke-linecap="round" stroke-linejoin="round"/>
<path d="M125.551 113.094L133.923 121.466L142.296 129.838" stroke="#38004D" stroke-width="2" stroke-miterlimit="10" stroke-linecap="round" stroke-linejoin="round"/>
<path d="M142.296 113.094L133.923 121.466L125.551 129.838" stroke="#38004D" stroke-width="2" stroke-miterlimit="10" stroke-linecap="round" stroke-linejoin="round"/>
<path d="M148.901 107.986C149.728 107.986 150.399 107.316 150.399 106.488C150.399 105.661 149.728 104.991 148.901 104.991C148.074 104.991 147.403 105.661 147.403 106.488C147.403 107.316 148.074 107.986 148.901 107.986Z" stroke="#38004D" stroke-width="2" stroke-miterlimit="10" stroke-linecap="round" stroke-linejoin="round"/>
<defs>
<filter id="filter0_f" x="80.8169" y="80.4658" width="106.214" height="114.534" filterUnits="userSpaceOnUse" color-interpolation-filters="sRGB">
<feFlood flood-opacity="0" result="BackgroundImageFix"/>
<feBlend mode="normal" in="SourceGraphic" in2="BackgroundImageFix" result="shape"/>
<feGaussianBlur stdDeviation="7" result="effect1_foregroundBlur"/>
</filter>
<filter id="filter1_bd" x="0" y="0" width="267.847" height="267.847" filterUnits="userSpaceOnUse" color-interpolation-filters="sRGB">
<feFlood flood-opacity="0" result="BackgroundImageFix"/>
<feGaussianBlur in="BackgroundImage" stdDeviation="19"/>
<feComposite in2="SourceAlpha" operator="in" result="effect1_backgroundBlur"/>
<feColorMatrix in="SourceAlpha" type="matrix" values="0 0 0 0 0 0 0 0 0 0 0 0 0 0 0 0 0 0 127 0" result="hardAlpha"/>
<feMorphology radius="10" operator="erode" in="SourceAlpha" result="effect2_dropShadow"/>
<feOffset dy="12"/>
<feGaussianBlur stdDeviation="47"/>
<feColorMatrix type="matrix" values="0 0 0 0 0 0 0 0 0 0 0 0 0 0 0 0 0 0 0.06 0"/>
<feBlend mode="normal" in2="effect1_backgroundBlur" result="effect2_dropShadow"/>
<feBlend mode="normal" in="SourceGraphic" in2="effect2_dropShadow" result="shape"/>
</filter>
<linearGradient id="paint0_linear" x1="94.8169" y1="181" x2="175.589" y2="181" gradientUnits="userSpaceOnUse">
<stop stop-color="#F2A1FF"/>
<stop offset="1" stop-color="#8532FD"/>
</linearGradient>
</defs>
</svg>
