<svg width="34" height="34" viewBox="0 0 34 34" fill="none" xmlns="http://www.w3.org/2000/svg">
<path d="M34 17C34 7.61116 26.3888 0 17 0C7.61116 0 0 7.61116 0 17C0 26.3888 7.61116 34 17 34C26.3888 34 34 26.3888 34 17Z" fill="#F1EEF4"/>
<path opacity="0.8" d="M19.209 15.1085L15.6231 21.3239H12.0364L12.9331 19.7697H9.48436L8.58675 21.3255H5L6.79337 18.217H6.79383L8.58721 15.1085H12.174L11.2782 16.6612H14.7265L15.6223 15.1085H15.6217H12.174L13.9673 12H21.0018L19.2084 15.1085H19.209Z" fill="#573E7A"/>
<path opacity="0.8" d="M21.6825 12H25.2692L23.4758 15.1085H27.5901L25.7967 18.217H25.7962L24.0038 21.3239H20.417L22.2095 18.217H18.0957L21.6825 12Z" fill="#573E7A"/>
</svg>
