<svg width="208" height="72" viewBox="0 0 208 72" fill="none" xmlns="http://www.w3.org/2000/svg">
<path d="M194.743 1H13.1391C6.43535 1 1 6.55601 1 13.4086V58.5914C1 65.444 6.43535 71 13.1391 71H194.743C201.447 71 206.882 65.444 206.882 58.5914V13.4086C206.88 6.55601 201.447 1 194.743 1Z" stroke="#30125C" stroke-miterlimit="10"/>
<path d="M50.9239 44.0897C50.039 46.0528 49.6143 46.9283 48.4746 48.6649C46.8819 51.0882 44.6402 54.1038 41.863 54.1298C39.3925 54.1534 38.7601 52.5229 35.4071 52.5418C32.0565 52.5606 31.3557 54.1581 28.8875 54.1368C26.1079 54.1109 23.9843 51.3879 22.3915 48.9646C17.9413 42.1902 17.4765 34.243 20.2207 30.017C22.1721 27.0132 25.2467 25.2553 28.1395 25.2553C31.0843 25.2553 32.9366 26.8716 35.3717 26.8716C37.7337 26.8716 39.173 25.2529 42.578 25.2529C45.1523 25.2529 47.88 26.6545 49.8219 29.0778C43.4557 32.5653 44.4916 41.6593 50.9239 44.0897Z" fill="#30125C"/>
<path d="M39.9956 22.5431C41.232 20.9551 42.1712 18.7111 41.8314 16.4199C39.8116 16.5591 37.4472 17.8451 36.0669 19.5204C34.8139 21.0424 33.7804 23.3005 34.1839 25.4926C36.3878 25.5634 38.6695 24.2444 39.9956 22.5431Z" fill="#30125C"/>
<path d="M68.6454 32.6797L61.4771 53.7775H64.7603L66.8997 47.2995H73.8402L76.0416 53.7775H79.4155L72.2162 32.6797H68.6454ZM70.3445 36.1488C70.5857 37.0913 70.8467 38.0692 71.183 39.1245L73.1145 44.7176H67.6166L69.5215 39.0869C69.8135 38.1776 70.0879 37.1909 70.3445 36.1488Z" fill="#30125C"/>
<path d="M88.6885 38.1484C86.5137 38.1484 84.7725 38.987 83.6132 40.5821L83.4871 38.4825H80.5667L80.5843 38.7502C80.6706 40.0578 80.706 41.4959 80.706 43.5623V59.8237H83.8986V52.235C84.8898 53.4209 86.4694 54.109 88.2615 54.109C90.1266 54.109 91.8457 53.3789 93.0979 52.0536C94.4962 50.5757 95.2329 48.4518 95.2329 45.9141C95.2329 43.6707 94.5913 41.7326 93.3789 40.3078C92.1908 38.9162 90.5249 38.1484 88.6885 38.1484ZM87.8943 40.7923C90.7395 40.7923 92.0138 43.4273 92.0138 46.0402C92.0138 49.4098 90.3899 51.5027 87.7726 51.5027C85.9871 51.5027 84.4429 50.2881 84.0114 48.5403C83.9384 48.2704 83.8986 47.9119 83.8986 47.5071V44.9406C83.8986 44.7083 83.9517 44.4251 84.0004 44.153C84.0158 44.0667 84.0335 43.9782 84.0468 43.8941C84.5225 42.0667 86.1022 40.7923 87.8943 40.7923Z" fill="#30125C"/>
<path d="M105.125 38.1484C102.953 38.1484 101.211 38.987 100.05 40.5821L99.9238 38.4825H97.0056L97.0211 38.7502C97.1074 40.06 97.145 41.4959 97.145 43.5623V59.8237H100.338V52.235C101.329 53.4209 102.908 54.109 104.701 54.109C106.566 54.109 108.285 53.3789 109.539 52.0536C110.935 50.5757 111.674 48.4518 111.674 45.9141C111.674 43.6707 111.033 41.7326 109.818 40.3078C108.628 38.9162 106.962 38.1484 105.125 38.1484ZM104.331 40.7923C107.176 40.7923 108.448 43.4273 108.448 46.0402C108.448 49.4098 106.822 51.5027 104.209 51.5027C102.424 51.5027 100.877 50.2881 100.448 48.5403C100.375 48.2704 100.335 47.9119 100.335 47.5071V44.9406C100.335 44.7061 100.386 44.4229 100.437 44.1508C100.453 44.0645 100.468 43.9782 100.484 43.8941C100.957 42.0667 102.539 40.7923 104.331 40.7923Z" fill="#30125C"/>
<path d="M125.716 41.6203C122.736 40.4676 121.782 39.5583 121.782 37.8834C121.782 36.4719 122.904 35.0493 125.411 35.0493C127.48 35.0493 128.803 35.7683 129.159 35.9896L129.429 36.1555L130.329 33.4917L130.15 33.3878C129.615 33.0736 128.09 32.3457 125.502 32.3457C121.431 32.3457 118.588 34.7484 118.588 38.1888C118.588 40.9632 120.369 42.9013 124.19 44.2907C126.898 45.304 127.907 46.3394 127.907 48.1182C127.907 50.1315 126.351 51.3793 123.849 51.3793C122.218 51.3793 120.541 50.9037 119.247 50.074L118.97 49.897L118.114 52.6227L118.271 52.7267C119.477 53.532 121.745 54.1139 123.665 54.1139C129.152 54.1139 131.097 50.7687 131.097 47.9036C131.101 44.95 129.542 43.1291 125.716 41.6203Z" fill="#30125C"/>
<path d="M136.849 34.8506L133.718 35.8329V38.4856H131.426V41.0366H133.718V48.8509C133.718 50.7404 134.079 52.0634 134.822 52.9019C135.537 53.6829 136.632 54.1143 137.911 54.1143C139.116 54.1143 139.975 53.8754 140.378 53.7338L140.557 53.6696L140.404 51.1143L140.099 51.2072C139.696 51.3311 139.28 51.3797 138.614 51.3797C137.377 51.3797 136.849 50.5965 136.849 48.7602V41.0366H140.698V38.4856H136.849V34.8506Z" fill="#30125C"/>
<path d="M148.609 38.1484C144.142 38.1484 141.024 41.4826 141.024 46.2526C141.024 50.881 144.042 54.1134 148.365 54.1134H148.394C152.049 54.1134 155.978 51.5669 155.978 45.9783C155.978 43.7061 155.275 41.7525 153.945 40.3321C152.607 38.9051 150.761 38.1484 148.609 38.1484ZM148.518 40.6684C151.39 40.6684 152.697 43.4672 152.697 46.0712C152.697 49.2704 150.914 51.5935 148.458 51.5935H148.427C146.007 51.5935 144.248 49.3102 144.248 46.1641C144.248 43.4295 145.569 40.6684 148.518 40.6684Z" fill="#30125C"/>
<path d="M165.759 38.2967L165.566 38.248C165.285 38.1772 165.055 38.1484 164.772 38.1484C163.102 38.1484 161.604 39.1308 160.77 40.7193L160.677 38.4847H157.812L157.829 38.7524C157.916 40.0157 157.949 41.4339 157.949 43.3499L157.92 53.7771H161.113V45.642C161.113 45.1995 161.144 44.7791 161.201 44.4052C161.562 42.4516 162.88 41.1883 164.56 41.1883C164.887 41.1883 165.144 41.2149 165.416 41.2414L165.757 41.2768V38.2967H165.759Z" fill="#30125C"/>
<path d="M172.935 38.1201C168.685 38.1201 165.718 41.5162 165.718 46.3769C165.718 51.0585 168.672 54.0851 173.241 54.0851C175.643 54.0851 177.316 53.5585 178.294 53.116L178.486 53.0298L177.873 50.6514L177.608 50.7598C176.738 51.1138 175.581 51.4744 173.608 51.4744C172.221 51.4744 169.021 51.0164 168.827 46.846L179.13 46.877L179.172 46.6734C179.236 46.3482 179.267 45.9123 179.267 45.3415C179.267 42.0074 177.608 38.1201 172.935 38.1201ZM172.723 40.5472C173.694 40.5472 174.484 40.8481 175.066 41.441C175.984 42.3746 176.145 43.753 176.165 44.4123H168.884C169.181 42.5693 170.333 40.5472 172.723 40.5472Z" fill="#30125C"/>
<path d="M64.2163 16.4328C64.9785 16.3314 65.868 16.2559 66.8425 16.2559C68.6075 16.2559 69.8652 16.6122 70.6981 17.3106C71.5594 18.009 72.0549 19.0119 72.0549 20.3993C72.0549 21.7962 71.5594 22.9406 70.6863 23.7287C69.7826 24.5286 68.3149 24.9604 66.465 24.9604C65.5754 24.9604 64.8558 24.9345 64.2187 24.859V16.4328H64.2163ZM65.4575 24.0213C65.7689 24.0732 66.2196 24.0732 66.701 24.0732C69.3272 24.085 70.7524 22.7518 70.7524 20.4394C70.7666 18.3937 69.4947 17.136 66.8992 17.136C66.2644 17.136 65.7831 17.1879 65.4598 17.2493V24.0213H65.4575Z" fill="#30125C"/>
<path d="M76.456 25.0256C74.6203 25.0256 73.1809 23.8057 73.1809 21.8614C73.1809 19.8038 74.6911 18.5957 76.5693 18.5957C78.5325 18.5957 79.8586 19.8793 79.8586 21.7481C79.8586 24.0346 78.0936 25.0256 76.4702 25.0256H76.456ZM76.4985 24.1856C77.6854 24.1856 78.575 23.1828 78.575 21.7835C78.575 20.7406 77.9969 19.4334 76.5268 19.4334C75.071 19.4334 74.4362 20.6533 74.4362 21.8213C74.4362 23.1686 75.2833 24.1856 76.4844 24.1856H76.4985Z" fill="#30125C"/>
<path d="M81.8231 18.7348L82.741 21.8495C82.925 22.5361 83.1091 23.1826 83.2341 23.8197H83.2766C83.4323 23.1968 83.6589 22.5361 83.883 21.8636L85.0015 18.7348H86.0468L87.1063 21.8093C87.3611 22.5337 87.5569 23.1944 87.7127 23.8174H87.7551C87.8684 23.1944 88.0525 22.5455 88.2766 21.8211L89.2511 18.7324H90.4805L88.279 24.8839H87.1487L86.1034 21.9486C85.8627 21.2501 85.6645 20.639 85.4946 19.9146H85.4663C85.2964 20.6508 85.0841 21.2997 84.8457 21.9604L83.7438 24.8839H82.6136L80.5513 18.7324H81.8231V18.7348Z" fill="#30125C"/>
<path d="M91.7207 20.4008C91.7207 19.7519 91.7065 19.2446 91.6641 18.7349H92.766L92.8368 19.7401H92.8651C93.2049 19.1691 93.9953 18.5957 95.1232 18.5957C96.0694 18.5957 97.5371 19.103 97.5371 21.2125V24.884H96.296V21.3399C96.296 20.3489 95.8854 19.5112 94.715 19.5112C93.9104 19.5112 93.2733 20.0327 93.0491 20.6556C92.9925 20.7949 92.9642 20.9978 92.9642 21.1771V24.8864H91.7207V20.4008Z" fill="#30125C"/>
<path d="M99.5581 15.8633H100.802V24.884H99.5581V15.8633Z" fill="#30125C"/>
<path d="M105.647 25.0256C103.811 25.0256 102.372 23.8057 102.372 21.8614C102.372 19.8038 103.882 18.5957 105.76 18.5957C107.723 18.5957 109.049 19.8793 109.049 21.7481C109.049 24.0346 107.284 25.0256 105.661 25.0256H105.647ZM105.687 24.1856C106.874 24.1856 107.763 23.1828 107.763 21.7835C107.763 20.7406 107.185 19.4334 105.715 19.4334C104.259 19.4334 103.625 20.6533 103.625 21.8213C103.625 23.1686 104.472 24.1856 105.673 24.1856H105.687Z" fill="#30125C"/>
<path d="M115.431 23.4117C115.431 23.9449 115.459 24.4664 115.53 24.8864H114.414L114.3 24.1125H114.258C113.89 24.5962 113.142 25.028 112.167 25.028C110.785 25.028 110.077 24.1502 110.077 23.2606C110.077 21.7741 111.544 20.96 114.185 20.9742V20.8444C114.185 20.3371 114.029 19.4098 112.632 19.4216C111.983 19.4216 111.32 19.5867 110.839 19.8793L110.556 19.129C111.12 18.8104 111.953 18.5957 112.816 18.5957C114.921 18.5957 115.428 19.8793 115.428 21.111V23.4117H115.431ZM114.215 21.7481C112.859 21.7222 111.32 21.9393 111.32 23.1332C111.32 23.8694 111.856 24.1998 112.479 24.1998C113.382 24.1998 113.961 23.6924 114.159 23.171C114.201 23.0577 114.215 22.9303 114.215 22.8147V21.7481Z" fill="#30125C"/>
<path d="M123.325 15.8633V23.296C123.325 23.8435 123.339 24.464 123.382 24.884H122.266L122.209 23.8175H122.181C121.799 24.5041 120.98 25.0256 119.866 25.0256C118.214 25.0256 116.928 23.7679 116.928 21.8991C116.914 19.8416 118.342 18.5957 119.991 18.5957C121.051 18.5957 121.756 19.0417 122.053 19.523H122.082V15.8633H123.325ZM122.082 21.2385C122.082 21.0851 122.068 20.9081 122.025 20.7547C121.841 20.0563 121.164 19.4711 120.232 19.4711C118.946 19.4711 118.184 20.4881 118.184 21.8354C118.184 23.0931 118.875 24.1219 120.203 24.1219C121.036 24.1219 121.799 23.6146 122.025 22.7887C122.068 22.6353 122.082 22.4843 122.082 22.305V21.2385Z" fill="#30125C"/>
<path d="M131.162 25.0256C129.326 25.0256 127.887 23.8057 127.887 21.8614C127.887 19.8038 129.399 18.5957 131.275 18.5957C133.238 18.5957 134.564 19.8793 134.564 21.7481C134.564 24.0346 132.799 25.0256 131.176 25.0256H131.162ZM131.204 24.1856C132.391 24.1856 133.278 23.1828 133.278 21.7835C133.278 20.7406 132.7 19.4334 131.233 19.4334C129.777 19.4334 129.142 20.6533 129.142 21.8213C129.142 23.1686 129.989 24.1856 131.188 24.1856H131.204Z" fill="#30125C"/>
<path d="M136.133 20.4008C136.133 19.7519 136.119 19.2446 136.076 18.7349H137.178L137.249 19.7401H137.277C137.617 19.1691 138.408 18.5957 139.536 18.5957C140.482 18.5957 141.949 19.103 141.949 21.2125V24.884H140.706V21.3399C140.706 20.3489 140.298 19.5112 139.125 19.5112C138.32 19.5112 137.686 20.0327 137.459 20.6556C137.403 20.7949 137.374 20.9978 137.374 21.1771V24.8864H136.133V20.4008Z" fill="#30125C"/>
<path d="M148.459 17.2617V18.7341H150.238V19.5859H148.459V22.9035C148.459 23.6657 148.699 24.0975 149.391 24.0975C149.728 24.0975 149.926 24.0715 150.11 24.022L150.167 24.8738C149.926 24.9493 149.547 25.0272 149.065 25.0272C148.487 25.0272 148.02 24.8502 147.723 24.5576C147.383 24.2155 147.244 23.668 147.244 22.9436V19.5859H146.184V18.7341H147.244V17.6039L148.459 17.2617Z" fill="#30125C"/>
<path d="M151.634 15.8633H152.875V19.7H152.904C153.1 19.3815 153.411 19.0912 153.793 18.9119C154.159 18.709 154.598 18.5933 155.063 18.5933C155.981 18.5933 157.448 19.1007 157.448 21.2243V24.884H156.207V21.3541C156.207 20.3489 155.797 19.523 154.626 19.523C153.822 19.523 153.201 20.0303 152.96 20.6415C152.89 20.7949 152.875 20.96 152.875 21.1747V24.884H151.634V15.8633Z" fill="#30125C"/>
<path d="M160.18 21.9997C160.209 23.5122 161.268 24.1352 162.512 24.1352C163.401 24.1352 163.951 23.9959 164.404 23.8308L164.631 24.6189C164.192 24.7958 163.43 25.0129 162.342 25.0129C160.251 25.0129 158.982 23.7553 158.982 21.9124C158.982 20.0436 160.211 18.583 162.2 18.583C164.432 18.583 165.01 20.3504 165.01 21.4806C165.01 21.7095 164.996 21.8865 164.968 22.0139L160.18 21.9997ZM163.809 21.1998C163.824 20.5014 163.484 19.3829 162.101 19.3829C160.829 19.3829 160.294 20.4259 160.195 21.1998H163.809Z" fill="#30125C"/>
</svg>
