<svg width="18" height="20" viewBox="0 0 18 20" fill="none" xmlns="http://www.w3.org/2000/svg">
<path d="M8.7892 20C9.98815 20 11.0204 19.276 11.4736 18.2422H6.10482C6.55795 19.276 7.59024 20 8.7892 20ZM14.8439 9.68229V8.39844C14.8439 5.67083 13.0309 3.35938 10.547 2.60417V1.75781C10.547 0.788542 9.75847 0 8.7892 0C7.81992 0 7.03138 0.788542 7.03138 1.75781V2.60417C4.54753 3.35938 2.73451 5.67083 2.73451 8.39844V9.68229C2.73451 12.0781 1.82149 14.3495 0.163154 16.0792C0.000654459 16.2484 -0.0451789 16.4984 0.0470086 16.7146C0.139196 16.9302 0.351175 17.0708 0.586071 17.0708H16.9923C17.2272 17.0708 17.4392 16.9307 17.5314 16.7146C17.6236 16.499 17.5777 16.2484 17.4152 16.0792C15.7574 14.3495 14.8439 12.0781 14.8439 9.68229ZM9.37513 2.3724C9.18242 2.35365 8.98711 2.34375 8.7892 2.34375C8.59128 2.34375 8.39597 2.35365 8.20326 2.3724V1.75781C8.20326 1.4349 8.46628 1.17188 8.7892 1.17188C9.11211 1.17188 9.37513 1.4349 9.37513 1.75781V2.3724ZM16.4064 8.39844C16.4064 8.72188 16.6689 8.98438 16.9923 8.98438C17.3158 8.98438 17.5783 8.72188 17.5783 8.39844C17.5783 6.05104 16.6642 3.84375 15.0038 2.18385C14.7751 1.95521 14.4038 1.95521 14.1751 2.18385C13.9465 2.4125 13.9465 2.78385 14.1751 3.0125C15.6142 4.45104 16.4064 6.36354 16.4064 8.39844ZM0.586071 8.98438C0.909509 8.98438 1.17201 8.72188 1.17201 8.39844C1.17201 6.36354 1.9642 4.45104 3.40326 3.0125C3.6319 2.78385 3.6319 2.4125 3.40326 2.18385C3.17461 1.95521 2.80326 1.95521 2.57461 2.18385C0.914717 3.84375 0.000133615 6.05104 0.000133615 8.39844C0.000133615 8.72188 0.262634 8.98438 0.586071 8.98438Z" fill="white"/>
</svg>
