<svg width="22" height="22" viewBox="0 0 22 22" fill="none" xmlns="http://www.w3.org/2000/svg">
<path d="M21.3721 14.6667C19.862 18.9391 15.7879 22.0001 10.9995 22.0001C6.21115 22.0001 2.13708 18.9391 0.626953 14.6667H21.3721Z" fill="#BC1735"/>
<path d="M22 10.9999C22 12.2846 21.78 13.5204 21.3726 14.6666H0.627407C0.22 13.5204 0 12.2846 0 10.9999C0 9.71523 0.22 8.47942 0.627407 7.33325H21.3726C21.78 8.47942 22 9.71523 22 10.9999Z" fill="#3F3CBA"/>
<path d="M21.3721 7.33333H0.626953C2.13708 3.06099 6.21115 0 10.9995 0C15.7879 0 19.862 3.06099 21.3721 7.33333Z" fill="#EFF1F2"/>
</svg>
