<svg width="45" height="45" viewBox="0 0 45 45" fill="none" xmlns="http://www.w3.org/2000/svg">
<rect width="45" height="45" fill="#E5E5E5"/>
<rect x="-384" y="-728" width="1920" height="1100" fill="#F9FBFC"/>
<g filter="url(#filter0_d)">
<rect x="-149" y="-409" width="335" height="579" rx="35" fill="white"/>
</g>
<rect opacity="0.07" width="45" height="45" rx="10" fill="#30125C"/>
<path d="M24.8614 20.47L20.8585 27.4082H16.8547L17.8556 25.6732H14.0058L13.0038 27.41H9L11.0019 23.94H11.0024L13.0044 20.47L17.0082 20.47L16.0083 22.2032H19.8576L20.8575 20.47L20.8569 20.47H17.0082L19.0101 17H26.8626L24.8607 20.47L24.8614 20.47Z" fill="#30125C"/>
<path d="M27.6223 17H31.6262L29.6243 20.47L34.217 20.47L32.215 23.94H32.2145L30.2136 27.4082H26.2097L28.2106 23.94H23.6185L27.6223 17Z" fill="#30125C"/>
<defs>
<filter id="filter0_d" x="-192" y="-413" width="421" height="665" filterUnits="userSpaceOnUse" color-interpolation-filters="sRGB">
<feFlood flood-opacity="0" result="BackgroundImageFix"/>
<feColorMatrix in="SourceAlpha" type="matrix" values="0 0 0 0 0 0 0 0 0 0 0 0 0 0 0 0 0 0 127 0" result="hardAlpha"/>
<feMorphology radius="35" operator="erode" in="SourceAlpha" result="effect1_dropShadow"/>
<feOffset dy="39"/>
<feGaussianBlur stdDeviation="39"/>
<feColorMatrix type="matrix" values="0 0 0 0 0.6232 0 0 0 0 0.7144 0 0 0 0 0.76 0 0 0 0.3 0"/>
<feBlend mode="normal" in2="BackgroundImageFix" result="effect1_dropShadow"/>
<feBlend mode="normal" in="SourceGraphic" in2="effect1_dropShadow" result="shape"/>
</filter>
</defs>
</svg>
