<svg width="218" height="72" viewBox="0 0 218 72" fill="none" xmlns="http://www.w3.org/2000/svg">
<path d="M204.649 1H13.6499C6.59935 1 0.882812 6.55601 0.882812 13.4086V58.5914C0.882812 65.444 6.59935 71 13.6499 71H204.649C211.7 71 217.416 65.444 217.416 58.5914V13.4086C217.414 6.55601 211.7 1 204.649 1Z" stroke="#30125C" stroke-miterlimit="10"/>
<path d="M37.4111 36.0004L17.1593 55.6835C16.8154 55.3564 16.5959 54.9013 16.5959 54.3703V17.6282C16.5959 17.0996 16.8154 16.6445 17.1593 16.3174L37.4111 36.0004Z" fill="#61C5E9"/>
<path d="M43.9576 42.3619L35.9925 46.792L19.4843 55.977C18.6771 56.4273 17.743 56.2401 17.1602 55.6831L37.4119 36L43.9576 42.3619Z" fill="#E62D4A"/>
<path d="M52.5007 37.6067L43.9576 42.3615L37.4119 35.9996L43.9576 29.6377L52.5007 34.3925C53.7859 35.106 53.7859 36.8932 52.5007 37.6067Z" fill="#FFD303"/>
<path d="M43.9576 29.6382L37.4119 36.0001L17.1602 16.3171C17.5187 15.9734 18.0113 15.7695 18.5259 15.7695C18.8454 15.7695 19.1746 15.8478 19.4843 16.0208L35.9925 25.2081L43.9576 29.6382Z" fill="#6DBA71"/>
<path d="M75.8732 41.7676H84.7016C84.7529 41.962 84.7943 42.199 84.8285 42.4764C84.8626 42.7537 84.8797 43.031 84.8797 43.3083C84.8797 44.4319 84.7041 45.4914 84.3505 46.4869C83.9993 47.4801 83.4457 48.3689 82.6896 49.1512C81.8848 49.9831 80.9215 50.6255 79.7972 51.083C78.6729 51.5381 77.3901 51.768 75.9488 51.768C74.6416 51.768 73.4076 51.5404 72.2516 51.083C71.0956 50.6279 70.0884 49.9902 69.2324 49.1772C68.3763 48.3618 67.6984 47.3971 67.196 46.2807C66.6936 45.1643 66.4424 43.9459 66.4424 42.6257C66.4424 41.3054 66.6936 40.0871 67.196 38.9707C67.6984 37.8543 68.3788 36.8895 69.2324 36.0741C70.0884 35.2588 71.0932 34.6235 72.2516 34.1684C73.4076 33.7133 74.6416 33.4834 75.9488 33.4834C77.4072 33.4834 78.712 33.7275 79.8606 34.2158C81.0093 34.7041 81.9946 35.382 82.8165 36.2448L80.4777 38.4682C79.8899 37.8661 79.2363 37.4039 78.5169 37.0863C77.795 36.7686 76.9316 36.6098 75.9269 36.6098C75.105 36.6098 74.3246 36.7521 73.5881 37.0365C72.8491 37.3209 72.2053 37.7263 71.6517 38.2454C71.098 38.7668 70.6591 39.3973 70.3323 40.1392C70.0055 40.8811 69.8421 41.7084 69.8421 42.6209C69.8421 43.5335 70.0055 44.3608 70.3323 45.1027C70.6591 45.8446 71.1029 46.4751 71.6638 46.9965C72.2248 47.518 72.8759 47.921 73.6124 48.2054C74.349 48.4898 75.1367 48.6321 75.9756 48.6321C76.9316 48.6321 77.7389 48.4969 78.4022 48.2291C79.0632 47.9613 79.6314 47.6152 80.0996 47.1909C80.4338 46.897 80.724 46.5272 80.9679 46.0792C81.2117 45.6312 81.3995 45.1311 81.5337 44.5765H75.8757V41.7676H75.8732Z" fill="#30125C"/>
<path d="M93.182 39.0049C94.138 39.0049 95.0135 39.1637 95.811 39.4813C96.606 39.7989 97.2938 40.2398 97.8742 40.8016C98.4522 41.3633 98.9058 42.0365 99.2326 42.8187C99.5594 43.6009 99.7228 44.4566 99.7228 45.3858C99.7228 46.3149 99.5594 47.1706 99.2326 47.9528C98.9058 48.735 98.4522 49.4058 97.8742 49.9699C97.2962 50.5317 96.6085 50.9726 95.811 51.2902C95.0135 51.6078 94.138 51.7666 93.182 51.7666C92.226 51.7666 91.3504 51.6078 90.5529 51.2902C89.7555 50.9726 89.0702 50.5317 88.4897 49.9699C87.9093 49.4082 87.4581 48.735 87.1313 47.9528C86.8045 47.1706 86.6411 46.3149 86.6411 45.3858C86.6411 44.4566 86.8045 43.6009 87.1313 42.8187C87.4581 42.0365 87.9117 41.3633 88.4897 40.8016C89.0677 40.2398 89.7555 39.7989 90.5529 39.4813C91.3504 39.1637 92.226 39.0049 93.182 39.0049ZM93.182 48.8061C93.6014 48.8061 94.0063 48.7279 94.4014 48.5738C94.794 48.4198 95.1428 48.1946 95.4452 47.9007C95.7476 47.6067 95.9866 47.2488 96.1622 46.8245C96.3378 46.4003 96.4256 45.9191 96.4256 45.3834C96.4256 44.8477 96.3378 44.3642 96.1622 43.9422C95.9866 43.518 95.7476 43.16 95.4452 42.8661C95.1428 42.5722 94.794 42.3494 94.4014 42.1953C94.0063 42.0413 93.6014 41.963 93.182 41.963C92.7454 41.963 92.3357 42.0413 91.9504 42.1953C91.565 42.3494 91.2212 42.5746 90.9188 42.8661C90.6163 43.16 90.3773 43.518 90.2018 43.9422C90.0262 44.3665 89.9384 44.8477 89.9384 45.3834C89.9384 45.9191 90.0262 46.4026 90.2018 46.8245C90.3773 47.2488 90.6163 47.6067 90.9188 47.9007C91.2212 48.1946 91.565 48.4174 91.9504 48.5738C92.3357 48.7279 92.7454 48.8061 93.182 48.8061Z" fill="#30125C"/>
<path d="M107.704 39.0049C108.66 39.0049 109.535 39.1637 110.333 39.4813C111.128 39.7989 111.816 40.2398 112.396 40.8016C112.974 41.3633 113.428 42.0365 113.755 42.8187C114.081 43.6009 114.245 44.4566 114.245 45.3858C114.245 46.3149 114.081 47.1706 113.755 47.9528C113.428 48.735 112.974 49.4058 112.396 49.9699C111.818 50.5317 111.13 50.9726 110.333 51.2902C109.535 51.6078 108.66 51.7666 107.704 51.7666C106.748 51.7666 105.872 51.6078 105.075 51.2902C104.277 50.9726 103.592 50.5317 103.012 49.9699C102.431 49.4082 101.98 48.735 101.653 47.9528C101.326 47.1706 101.163 46.3149 101.163 45.3858C101.163 44.4566 101.326 43.6009 101.653 42.8187C101.98 42.0365 102.434 41.3633 103.012 40.8016C103.59 40.2398 104.277 39.7989 105.075 39.4813C105.872 39.1637 106.748 39.0049 107.704 39.0049ZM107.704 48.8061C108.123 48.8061 108.528 48.7279 108.923 48.5738C109.316 48.4198 109.665 48.1946 109.967 47.9007C110.27 47.6067 110.509 47.2488 110.684 46.8245C110.86 46.4003 110.948 45.9191 110.948 45.3834C110.948 44.8477 110.86 44.3642 110.684 43.9422C110.509 43.518 110.27 43.16 109.967 42.8661C109.665 42.5722 109.316 42.3494 108.923 42.1953C108.528 42.0413 108.123 41.963 107.704 41.963C107.267 41.963 106.858 42.0413 106.472 42.1953C106.087 42.3494 105.743 42.5746 105.441 42.8661C105.138 43.16 104.899 43.518 104.724 43.9422C104.548 44.3665 104.46 44.8477 104.46 45.3834C104.46 45.9191 104.548 46.4026 104.724 46.8245C104.899 47.2488 105.138 47.6067 105.441 47.9007C105.743 48.1946 106.087 48.4174 106.472 48.5738C106.858 48.7279 107.267 48.8061 107.704 48.8061Z" fill="#30125C"/>
<path d="M122.074 57.0429C121.201 57.0429 120.428 56.9339 119.748 56.7135C119.067 56.493 118.477 56.2086 117.975 55.8578C117.472 55.507 117.053 55.1206 116.716 54.6963C116.38 54.2721 116.138 53.8478 115.987 53.4259L119.131 52.2028C119.365 52.838 119.75 53.331 120.287 53.6818C120.823 54.0326 121.418 54.2081 122.072 54.2081C123.111 54.2081 123.933 53.881 124.537 53.2244C125.14 52.5678 125.442 51.6671 125.442 50.5175V49.6855H125.24C124.854 50.207 124.347 50.6194 123.718 50.9204C123.089 51.2215 122.347 51.3732 121.491 51.3732C120.752 51.3732 120.038 51.2286 119.34 50.937C118.645 50.6479 118.028 50.2307 117.492 49.6902C116.955 49.1498 116.519 48.5003 116.185 47.7418C115.848 46.9833 115.682 46.1371 115.682 45.2009C115.682 44.2646 115.85 43.4137 116.185 42.6481C116.519 41.8824 116.955 41.2282 117.492 40.6878C118.028 40.1474 118.645 39.7326 119.34 39.441C120.035 39.1518 120.752 39.0049 121.491 39.0049C122.347 39.0049 123.089 39.1566 123.718 39.4576C124.347 39.7586 124.854 40.1711 125.24 40.6925H125.442V39.3984H128.586V50.5199C128.586 51.5296 128.427 52.4374 128.108 53.2457C127.788 54.0516 127.344 54.7366 126.776 55.2984C126.206 55.8602 125.523 56.2916 124.728 56.595C123.933 56.8936 123.047 57.0429 122.074 57.0429ZM122.201 48.4885C122.603 48.4885 123.001 48.4174 123.396 48.2728C123.789 48.1282 124.137 47.9172 124.44 47.6376C124.742 47.3579 124.984 47.0142 125.169 46.6065C125.352 46.1988 125.445 45.7295 125.445 45.2032C125.445 44.6747 125.352 44.203 125.169 43.7882C124.984 43.3734 124.742 43.0249 124.44 42.7452C124.137 42.4655 123.789 42.2522 123.396 42.11C123.001 41.9654 122.603 41.8943 122.201 41.8943C121.799 41.8943 121.404 41.9654 121.018 42.11C120.633 42.2546 120.289 42.4703 119.987 42.7571C119.684 43.0439 119.44 43.3923 119.257 43.8024C119.072 44.2101 118.982 44.677 118.982 45.2056C118.982 45.7342 119.074 46.2011 119.257 46.6088C119.443 47.0165 119.684 47.3602 119.987 47.6399C120.289 47.9196 120.633 48.1329 121.018 48.2752C121.404 48.4174 121.799 48.4885 122.201 48.4885Z" fill="#30125C"/>
<path d="M131.375 51.373V33.873H134.67V51.373H131.375Z" fill="#30125C"/>
<path d="M149.194 48.4889C148.624 49.4655 147.858 50.2572 146.892 50.8592C145.929 51.4613 144.751 51.7647 143.358 51.7647C142.419 51.7647 141.551 51.6059 140.756 51.2882C139.959 50.9706 139.268 50.5274 138.681 49.9561C138.093 49.3849 137.637 48.7141 137.31 47.939C136.983 47.1663 136.82 46.313 136.82 45.3838C136.82 44.521 136.978 43.7009 137.298 42.9282C137.615 42.1554 138.061 41.4775 138.632 40.8992C139.203 40.3208 139.876 39.861 140.656 39.5173C141.436 39.176 142.295 39.0029 143.234 39.0029C144.224 39.0029 145.104 39.1617 145.875 39.4794C146.646 39.797 147.292 40.2379 147.811 40.7996C148.331 41.3614 148.726 42.0251 148.994 42.7907C149.263 43.5563 149.397 44.3883 149.397 45.2843C149.397 45.398 149.397 45.4952 149.397 45.5782C149.38 45.6754 149.372 45.7654 149.372 45.846C149.355 45.9266 149.348 46.0167 149.348 46.1139H140.068C140.134 46.6021 140.273 47.0217 140.483 47.3725C140.693 47.7233 140.951 48.0172 141.263 48.2519C141.573 48.4889 141.912 48.6596 142.283 48.7662C142.651 48.8729 143.029 48.925 143.414 48.925C144.168 48.925 144.792 48.7591 145.287 48.4249C145.782 48.0907 146.17 47.6712 146.456 47.1663L149.194 48.4889ZM146.202 43.8455C146.185 43.6345 146.114 43.3975 145.987 43.1368C145.86 42.876 145.678 42.6319 145.434 42.4043C145.19 42.1768 144.89 41.9895 144.529 41.8426C144.168 41.6956 143.736 41.6221 143.234 41.6221C142.529 41.6221 141.91 41.8189 141.373 42.2076C140.837 42.5987 140.458 43.1439 140.241 43.8455H146.202Z" fill="#30125C"/>
<path d="M158.298 51.373V33.873H164.637C165.493 33.873 166.292 34.0082 167.039 34.276C167.785 34.5438 168.434 34.9231 168.987 35.4137C169.541 35.9044 169.977 36.4851 170.295 37.1607C170.614 37.8362 170.773 38.5829 170.773 39.3982C170.773 40.2302 170.614 40.984 170.295 41.6595C169.975 42.3351 169.541 42.9182 168.987 43.4064C168.434 43.8947 167.785 44.274 167.039 44.5418C166.292 44.8097 165.493 44.9448 164.637 44.9448H161.693V51.373H158.298ZM164.685 41.816C165.573 41.816 166.244 41.5718 166.697 41.0835C167.151 40.5952 167.375 40.0335 167.375 39.3959C167.375 39.0854 167.322 38.7843 167.212 38.4904C167.102 38.1965 166.936 37.9405 166.709 37.7201C166.483 37.4996 166.202 37.3242 165.866 37.1939C165.529 37.0635 165.136 36.9971 164.683 36.9971H161.69V41.8136H164.685V41.816Z" fill="#30125C"/>
<path d="M172.577 51.373V33.873H175.872V51.373H172.577Z" fill="#30125C"/>
<path d="M186.282 50.1027H186.082C185.696 50.5601 185.231 50.9512 184.687 51.276C184.143 51.6007 183.443 51.7643 182.587 51.7643C181.95 51.7643 181.35 51.6623 180.789 51.4585C180.229 51.2546 179.736 50.975 179.319 50.6147C178.899 50.2567 178.573 49.8254 178.338 49.3181C178.104 48.8132 177.987 48.2586 177.987 47.6565C177.987 47.0379 178.114 46.4785 178.365 45.9831C178.617 45.4853 178.968 45.0587 179.421 44.7007C179.875 44.3428 180.407 44.0702 181.019 43.883C181.631 43.6957 182.297 43.6009 183.019 43.6009C183.823 43.6009 184.484 43.6625 185.006 43.7834C185.526 43.9067 185.952 44.0323 186.289 44.1627V43.7953C186.289 43.16 186.028 42.6338 185.509 42.219C184.989 41.8042 184.343 41.5956 183.572 41.5956C182.431 41.5956 181.467 42.0602 180.68 42.9894L178.29 41.4013C179.597 39.8037 181.382 39.0049 183.645 39.0049C185.557 39.0049 187.016 39.441 188.021 40.3133C189.025 41.1856 189.53 42.4774 189.53 44.1864V51.3732H186.287V50.1027H186.282ZM186.282 46.5093C185.896 46.3315 185.499 46.1869 185.087 46.0826C184.674 45.976 184.228 45.9238 183.74 45.9238C182.953 45.9238 182.345 46.0921 181.916 46.424C181.489 46.7582 181.275 47.1682 181.275 47.6589C181.275 48.1495 181.48 48.5383 181.892 48.8322C182.302 49.1261 182.775 49.2731 183.314 49.2731C183.75 49.2731 184.153 49.1948 184.521 49.0408C184.889 48.8867 185.204 48.6829 185.465 48.4292C185.723 48.1756 185.926 47.8841 186.067 47.5499C186.211 47.2133 186.282 46.8672 186.282 46.5093Z" fill="#30125C"/>
<path d="M195.4 50.7868L190.22 39.3975H193.968L197.088 46.6577H197.263L200.256 39.3975H203.928L196.207 56.6533H192.661L195.4 50.7868Z" fill="#30125C"/>
<path d="M75.5323 21.0357C75.5323 22.3157 75.1421 23.3349 74.3592 24.0958C73.4812 25.0013 72.3277 25.4516 70.8961 25.4516C69.5255 25.4516 68.3671 24.9918 67.4184 24.0697C66.4697 23.1477 65.9966 22.0123 65.9966 20.6636C65.9966 19.3149 66.4697 18.1795 67.4184 17.2598C68.3671 16.3378 69.5255 15.8779 70.8961 15.8779C71.5887 15.8779 72.2448 15.9964 72.8593 16.2358C73.4739 16.4752 73.9788 16.8118 74.3738 17.248L73.5056 18.0918C73.2154 17.7505 72.8398 17.4826 72.3789 17.2906C71.918 17.0986 71.4229 17.0015 70.8961 17.0015C69.8694 17.0015 68.9987 17.3475 68.289 18.0373C67.5867 18.7365 67.2355 19.6112 67.2355 20.6612C67.2355 21.7113 67.5867 22.5859 68.289 23.2852C69.0012 23.9773 69.8694 24.3233 70.8961 24.3233C71.8351 24.3233 72.6179 24.0674 73.2398 23.5554C73.8641 23.0434 74.2226 22.3394 74.3202 21.4434H70.8961V20.3436H75.4664C75.5103 20.583 75.5323 20.8129 75.5323 21.0357Z" fill="#30125C"/>
<path d="M82.5256 16.0811V17.207H78.2333V20.113H82.1061V21.2128H78.2333V24.1188H82.5256V25.2447H77.0212V16.0811H82.5256Z" fill="#30125C"/>
<path d="M87.4095 17.207V25.2447H86.1974V17.207H83.5635V16.0811H90.0433V17.207H87.4095Z" fill="#30125C"/>
<path d="M95.8652 25.247H94.6531V16.0811H95.8652V25.247Z" fill="#30125C"/>
<path d="M100.875 17.207V25.2447H99.6632V17.207H97.0293V16.0811H103.509V17.207H100.875Z" fill="#30125C"/>
<path d="M117.348 20.6626C117.348 22.0184 116.882 23.1538 115.953 24.0687C115.014 24.9908 113.862 25.4506 112.502 25.4506C111.131 25.4506 109.982 24.9908 109.051 24.0687C108.119 23.1562 107.656 22.0208 107.656 20.6626C107.656 19.3068 108.122 18.1714 109.051 17.2588C109.982 16.3368 111.131 15.877 112.502 15.877C113.872 15.877 115.021 16.3415 115.953 17.2731C116.882 18.1856 117.348 19.3163 117.348 20.6626ZM108.892 20.6626C108.892 21.7198 109.234 22.5944 109.919 23.2865C110.612 23.9787 111.472 24.3247 112.499 24.3247C113.526 24.3247 114.382 23.9787 115.067 23.2865C115.76 22.6039 116.109 21.7292 116.109 20.6626C116.109 19.596 115.762 18.7213 115.067 18.0387C114.382 17.3465 113.526 17.0029 112.499 17.0029C111.472 17.0029 110.612 17.3489 109.919 18.0387C109.236 18.7308 108.892 19.6055 108.892 20.6626Z" fill="#30125C"/>
<path d="M120.118 25.247H118.906V16.0811H120.382L124.964 23.2109H125.018L124.964 21.4451V16.0811H126.176V25.247H124.913L120.118 17.7711H120.065L120.118 19.537V25.247Z" fill="#30125C"/>
</svg>
