<svg width="12" height="19" viewBox="0 0 12 19" fill="none" xmlns="http://www.w3.org/2000/svg">
<path d="M8.55673 18.2873L11.3728 15.4721C11.618 15.2268 11.618 14.8289 11.3728 14.5837C11.1276 14.3384 10.7297 14.3384 10.4844 14.5837L8.74174 16.3273V7.80557C8.74174 7.45825 8.46074 7.17725 8.11341 7.17725C7.76609 7.17725 7.48508 7.45825 7.48508 7.80557V16.3264L5.74147 14.5828C5.49625 14.3376 5.09831 14.3376 4.85309 14.5828C4.73004 14.7058 4.66895 14.8664 4.66895 15.027C4.66895 15.1876 4.73004 15.3481 4.85309 15.4712L7.66922 18.2873C7.91357 18.5325 8.31151 18.5325 8.55673 18.2873Z" fill="black"/>
<path d="M4.08646 11.3947V2.87383L5.83007 4.61744C6.07529 4.86266 6.47323 4.86266 6.71846 4.61744C6.96368 4.37222 6.96368 3.97428 6.71846 3.72905L3.90233 0.912921C3.6571 0.667698 3.25916 0.667698 3.01394 0.912921L0.197807 3.72905C0.074759 3.8521 0.0136719 4.01267 0.0136719 4.17325C0.0136719 4.33382 0.074759 4.49526 0.197807 4.61744C0.44303 4.86266 0.84097 4.86266 1.08619 4.61744L2.82893 2.87383V11.3947C2.82893 11.742 3.10993 12.023 3.45726 12.023C3.80459 12.023 4.08646 11.742 4.08646 11.3947Z" fill="black"/>
</svg>
