<svg width="23" height="15" viewBox="0 0 23 15" fill="none" xmlns="http://www.w3.org/2000/svg">
<path d="M22.7613 3.88895L19.1119 0.238411C18.794 -0.0794703 18.2782 -0.0794703 17.9603 0.238411C17.6424 0.556292 17.6424 1.07214 17.9603 1.39002L20.2205 3.64913H9.17387C8.72364 3.64913 8.35938 4.01339 8.35938 4.46363C8.35938 4.91386 8.72364 5.27813 9.17387 5.27813H20.2194L17.9592 7.53836C17.6413 7.85624 17.6413 8.37209 17.9592 8.68997C18.1187 8.84948 18.3268 8.92867 18.535 8.92867C18.7431 8.92867 18.9513 8.84948 19.1108 8.68997L22.7613 5.03943C23.0792 4.72268 23.0792 4.20683 22.7613 3.88895Z" fill="black"/>
<path d="M13.8258 9.68346H2.78033L5.04057 7.42323C5.35845 7.10534 5.35845 6.58949 5.04057 6.27161C4.72268 5.95373 4.20683 5.95373 3.88895 6.27161L0.238411 9.92215C-0.0794703 10.24 -0.0794703 10.7559 0.238411 11.0738L3.88895 14.7243C4.04846 14.8838 4.25661 14.963 4.46476 14.963C4.67291 14.963 4.88219 14.8838 5.04057 14.7243C5.35845 14.4064 5.35845 13.8906 5.04057 13.5727L2.78033 11.3136H13.8258C14.2761 11.3136 14.6403 10.9493 14.6403 10.4991C14.6403 10.0489 14.2761 9.68346 13.8258 9.68346Z" fill="black"/>
</svg>
