<svg width="35" height="40" viewBox="0 0 35 40" fill="none" xmlns="http://www.w3.org/2000/svg">
<path d="M8.82448 32.8998C9.40275 32.1412 9.2565 31.0573 8.49782 30.4791C7.73914 29.9008 6.65533 30.047 6.07705 30.8057L3.73576 33.8774C3.15748 34.6361 3.30373 35.7199 4.06241 36.2982C4.82109 36.8765 5.90491 36.7302 6.48318 35.9716L8.82448 32.8998Z" fill="#30135C"/>
<path d="M19.3645 34.9009C19.1046 33.9831 19.6378 33.0283 20.5557 32.7683C21.4735 32.5083 22.4283 33.0416 22.6883 33.9595L23.7409 37.6755C24.0009 38.5933 23.4676 39.5482 22.5497 39.8081C21.6319 40.0681 20.6771 39.5348 20.4171 38.617L19.3645 34.9009Z" fill="#30135C"/>
<path fill-rule="evenodd" clip-rule="evenodd" d="M18.3408 2.27434C18.5187 1.33715 19.4227 0.721643 20.3599 0.899575C21.2971 1.07751 21.9126 1.9815 21.7347 2.91869L21.4125 4.61564L29.8972 6.22651C32.7088 6.76031 34.5553 9.47228 34.0215 12.2839L31.4441 25.8594C30.9103 28.671 28.1984 30.5175 25.3868 29.9837L5.02344 26.1176C2.21185 25.5838 0.36533 22.8719 0.899127 20.0603L3.47653 6.48472C4.01032 3.67314 6.7223 1.82662 9.53389 2.36041L18.0186 3.97129L18.3408 2.27434ZM28.0354 14.0038C28.7598 13.3832 28.8439 12.2928 28.2232 11.5684C27.6025 10.8439 26.5121 10.7599 25.7877 11.3805L18.5916 17.5462L15.2758 14.2946C14.6879 13.7181 13.7749 13.6367 13.0943 14.1001L7.03696 18.2244C6.24844 18.7612 6.04445 19.8357 6.58134 20.6242C7.11822 21.4127 8.19266 21.6167 8.98118 21.0798L13.8681 17.7525L17.3035 21.1214C17.9432 21.7487 18.9564 21.7828 19.6367 21.1999L28.0354 14.0038Z" fill="#30135C"/>
</svg>
