<svg width="85" height="85" viewBox="0 0 85 85" fill="none" xmlns="http://www.w3.org/2000/svg">
<rect x="0.5" y="0.5" width="84" height="84" rx="19.5" stroke="#30125C"/>
<path d="M42 49C45.3137 49 48 46.3137 48 43C48 39.6863 45.3137 37 42 37C38.6863 37 36 39.6863 36 43C36 46.3137 38.6863 49 42 49Z" fill="#30125C"/>
<path fill-rule="evenodd" clip-rule="evenodd" d="M32 23C26.4772 23 22 27.4772 22 33V53C22 58.5228 26.4772 63 32 63H52C57.5228 63 62 58.5228 62 53V33C62 27.4772 57.5228 23 52 23H32ZM42 53C47.5228 53 52 48.5228 52 43C52 37.4772 47.5228 33 42 33C36.4772 33 32 37.4772 32 43C32 48.5228 36.4772 53 42 53ZM56 31C56 32.1046 55.1046 33 54 33C52.8954 33 52 32.1046 52 31C52 29.8954 52.8954 29 54 29C55.1046 29 56 29.8954 56 31Z" fill="#30125C"/>
</svg>
