<svg width="25" height="21" viewBox="0 0 25 21" fill="none" xmlns="http://www.w3.org/2000/svg">
<path fill-rule="evenodd" clip-rule="evenodd" d="M3.40909 0C1.5263 0 0 1.5263 0 3.40909V5.68182H25V3.40909C25 1.5263 23.4737 0 21.5909 0H3.40909ZM25 7.95455H0V17.0455C0 18.9282 1.5263 20.4545 3.40909 20.4545H21.5909C23.4737 20.4545 25 18.9282 25 17.0455V7.95455ZM7.95455 14.2045C7.95455 15.1459 7.19139 15.9091 6.25 15.9091C5.30861 15.9091 4.54545 15.1459 4.54545 14.2045C4.54545 13.2632 5.30861 12.5 6.25 12.5C7.19139 12.5 7.95455 13.2632 7.95455 14.2045ZM11.9318 15.9091C12.8732 15.9091 13.6364 15.1459 13.6364 14.2045C13.6364 13.2632 12.8732 12.5 11.9318 12.5C10.9904 12.5 10.2273 13.2632 10.2273 14.2045C10.2273 15.1459 10.9904 15.9091 11.9318 15.9091Z" fill="#EE58FF"/>
</svg>
