<svg width="24" height="23" viewBox="0 0 24 23" fill="none" xmlns="http://www.w3.org/2000/svg">
<path d="M11.9467 11.5C11.3115 11.5 10.7967 10.9851 10.7967 10.35C10.7967 9.71487 11.3115 9.2 11.9467 9.2C12.5818 9.2 13.0967 9.71487 13.0967 10.35C13.0967 10.9851 12.5818 11.5 11.9467 11.5Z" fill="#FFEF5C"/>
<path fill-rule="evenodd" clip-rule="evenodd" d="M3.89666 0C1.99127 0 0.446655 1.54462 0.446655 3.45V17.25C0.446655 19.1554 1.99127 20.7 3.89665 20.7L3.89666 21.85C3.89666 22.4851 4.41153 23 5.04666 23C5.68178 23 6.19666 22.4851 6.19666 21.85V20.7H17.6967V21.85C17.6967 22.4851 18.2115 23 18.8467 23C19.4818 23 19.9967 22.4851 19.9967 21.85V20.7C21.902 20.7 23.4467 19.1554 23.4467 17.25V3.45C23.4467 1.54462 21.902 0 19.9967 0H3.89666ZM11.9467 4.6C11.3115 4.6 10.7967 5.11487 10.7967 5.75V7.09631C9.81638 7.44279 9.03944 8.21972 8.69297 9.2H7.34665C6.71153 9.2 6.19666 9.71487 6.19666 10.35C6.19666 10.9851 6.71153 11.5 7.34665 11.5H8.69297C9.03944 12.4803 9.81638 13.2572 10.7967 13.6037V14.95C10.7967 15.5851 11.3115 16.1 11.9467 16.1C12.5818 16.1 13.0967 15.5851 13.0967 14.95V13.6037C14.0769 13.2572 14.8539 12.4803 15.2003 11.5H16.5467C17.1818 11.5 17.6967 10.9851 17.6967 10.35C17.6967 9.71487 17.1818 9.2 16.5467 9.2H15.2003C14.8539 8.21972 14.0769 7.44279 13.0967 7.09631V5.75C13.0967 5.11487 12.5818 4.6 11.9467 4.6Z" fill="#FFEF5C"/>
</svg>
