<svg width="26" height="21" viewBox="0 0 26 21" fill="none" xmlns="http://www.w3.org/2000/svg">
<path fill-rule="evenodd" clip-rule="evenodd" d="M2.31333 0C1.03571 0 0 1.03571 0 2.31333V18.5067C0 19.7843 1.03571 20.82 2.31333 20.82H23.1333C24.411 20.82 25.4467 19.7843 25.4467 18.5067V2.31333C25.4467 1.03571 24.411 0 23.1333 0H2.31333ZM3.47 13.88C2.83119 13.88 2.31333 14.3979 2.31333 15.0367V17.35C2.31333 17.9888 2.83119 18.5067 3.47 18.5067C4.10881 18.5067 4.62667 17.9888 4.62667 17.35V15.0367C4.62667 14.3979 4.10881 13.88 3.47 13.88ZM6.94 12.7233C6.94 12.0845 7.45786 11.5667 8.09667 11.5667C8.73548 11.5667 9.25333 12.0845 9.25333 12.7233V17.35C9.25333 17.9888 8.73548 18.5067 8.09667 18.5067C7.45786 18.5067 6.94 17.9888 6.94 17.35V12.7233ZM12.7233 4.62667C12.0845 4.62667 11.5667 5.14452 11.5667 5.78333V17.35C11.5667 17.9888 12.0845 18.5067 12.7233 18.5067C13.3621 18.5067 13.88 17.9888 13.88 17.35V5.78333C13.88 5.14452 13.3621 4.62667 12.7233 4.62667ZM16.1933 8.09667C16.1933 7.45786 16.7112 6.94 17.35 6.94C17.9888 6.94 18.5067 7.45786 18.5067 8.09667V17.35C18.5067 17.9888 17.9888 18.5067 17.35 18.5067C16.7112 18.5067 16.1933 17.9888 16.1933 17.35V8.09667ZM21.9767 2.31333C21.3379 2.31333 20.82 2.83119 20.82 3.47V17.35C20.82 17.9888 21.3379 18.5067 21.9767 18.5067C22.6155 18.5067 23.1333 17.9888 23.1333 17.35V3.47C23.1333 2.83119 22.6155 2.31333 21.9767 2.31333Z" fill="#CDF55B"/>
</svg>
