<svg width="26" height="21" viewBox="0 0 26 21" fill="none" xmlns="http://www.w3.org/2000/svg">
<path fill-rule="evenodd" clip-rule="evenodd" d="M2.71999 0C1.4648 0 0.447266 1.01753 0.447266 2.27273V18.1818C0.447266 19.437 1.4648 20.4545 2.71999 20.4545H23.1745C24.4297 20.4545 25.4473 19.437 25.4473 18.1818V2.27273C25.4473 1.01753 24.4297 0 23.1745 0H2.71999ZM23.0248 3.97308C23.3362 3.42817 23.1469 2.73402 22.602 2.42265C22.057 2.11127 21.3629 2.30058 21.0515 2.84549L17.3603 9.30518C17.1077 9.74721 16.5919 9.9673 16.098 9.84382L10.3477 8.40624C8.86599 8.03581 7.31872 8.69608 6.56096 10.0222L2.8697 16.4819C2.55833 17.0268 2.74764 17.7209 3.29255 18.0323C3.83745 18.3437 4.53161 18.1543 4.84298 17.6094L8.53424 11.1498C8.78682 10.7077 9.30258 10.4876 9.79648 10.6111L15.5468 12.0487C17.0285 12.4191 18.5758 11.7589 19.3335 10.4328L23.0248 3.97308Z" fill="#53E1EA"/>
</svg>
