<svg width="20" height="20" viewBox="0 0 20 20" fill="none" xmlns="http://www.w3.org/2000/svg">
<rect opacity="0.2" width="20" height="20" rx="10" fill="#30125C"/>
<path d="M9.4375 12.2809H10.7578V12.1932C10.7763 11.1314 11.081 10.6559 11.8658 10.1712C12.6921 9.67258 13.1999 8.97088 13.1999 7.93217C13.1999 6.43182 12.0643 5.41619 10.37 5.41619C8.81428 5.41619 7.56783 6.32564 7.50781 7.98757H8.91122C8.96662 7.00888 9.66371 6.57954 10.37 6.57954C11.1548 6.57954 11.7919 7.10121 11.7919 7.91832C11.7919 8.60618 11.3626 9.09091 10.8132 9.43253C9.95455 9.95881 9.44673 10.4805 9.4375 12.1932V12.2809ZM10.1346 15.0877C10.6378 15.0877 11.0579 14.6768 11.0579 14.1644C11.0579 13.6612 10.6378 13.2457 10.1346 13.2457C9.62678 13.2457 9.21129 13.6612 9.21129 14.1644C9.21129 14.6768 9.62678 15.0877 10.1346 15.0877Z" fill="white"/>
</svg>
