<svg width="20" height="20" viewBox="0 0 20 20" fill="none" xmlns="http://www.w3.org/2000/svg">
<path d="M19.4296 13.3333C18.0567 17.2172 14.353 19.9999 9.99994 19.9999C5.64686 19.9999 1.94315 17.2172 0.570312 13.3333H19.4296Z" fill="#BC1735"/>
<path d="M20 10.0001C20 11.168 19.8 12.2914 19.4296 13.3334H0.57037C0.2 12.2914 0 11.168 0 10.0001C0 8.83218 0.2 7.70872 0.57037 6.66675H19.4296C19.8 7.70872 20 8.83218 20 10.0001Z" fill="#3F3CBA"/>
<path d="M19.4296 6.66667H0.570312C1.94315 2.78272 5.64686 0 9.99994 0C14.353 0 18.0567 2.78272 19.4296 6.66667Z" fill="#EFF1F2"/>
</svg>
