<svg width="24" height="25" viewBox="0 0 24 25" fill="none" xmlns="http://www.w3.org/2000/svg">
<path d="M23.3225 0.727478C22.7222 0.0857476 21.8338 -0.153329 21.0055 0.0983306L1.6896 5.9494C0.815638 6.20232 0.196185 6.92836 0.0293162 7.85069C-0.141154 8.78938 0.45429 9.98098 1.23221 10.4793L7.27188 14.346C7.89134 14.7424 8.69086 14.643 9.20347 14.1044L16.1195 6.85538C16.4676 6.47789 17.0439 6.47789 17.392 6.85538C17.7402 7.22028 17.7402 7.81168 17.392 8.18917L10.464 15.4395C9.95018 15.9768 9.85414 16.8135 10.2323 17.4628L13.9226 23.8172C14.3548 24.5722 15.0991 25 15.9154 25C16.0115 25 16.1195 25 16.2155 24.9874C17.1519 24.8616 17.8962 24.1947 18.1723 23.251L23.8987 3.15599C24.1508 2.30035 23.9227 1.36921 23.3225 0.727478Z" fill="white"/>
</svg>
