<svg width="27" height="27" viewBox="0 0 27 27" fill="none" xmlns="http://www.w3.org/2000/svg">
<path d="M13.5 17.55C15.7368 17.55 17.55 15.7368 17.55 13.5C17.55 11.2632 15.7368 9.45 13.5 9.45C11.2632 9.45 9.45 11.2632 9.45 13.5C9.45 15.7368 11.2632 17.55 13.5 17.55Z" fill="white"/>
<path fill-rule="evenodd" clip-rule="evenodd" d="M6.75 0C3.02208 0 0 3.02208 0 6.75V20.25C0 23.9779 3.02208 27 6.75 27H20.25C23.9779 27 27 23.9779 27 20.25V6.75C27 3.02208 23.9779 0 20.25 0H6.75ZM13.5 20.25C17.2279 20.25 20.25 17.2279 20.25 13.5C20.25 9.77208 17.2279 6.75 13.5 6.75C9.77208 6.75 6.75 9.77208 6.75 13.5C6.75 17.2279 9.77208 20.25 13.5 20.25ZM22.95 5.4C22.95 6.14558 22.3456 6.75 21.6 6.75C20.8544 6.75 20.25 6.14558 20.25 5.4C20.25 4.65442 20.8544 4.05 21.6 4.05C22.3456 4.05 22.95 4.65442 22.95 5.4Z" fill="white"/>
</svg>
