<svg width="27" height="23" viewBox="0 0 27 23" fill="none" xmlns="http://www.w3.org/2000/svg">
<path d="M25.064 5.75C25.7248 15.3333 18.4562 23 9.20532 23C6.01785 23 2.83038 22.587 0.329675 21.4291C-0.243052 21.1639 -0.0191901 20.4253 0.614434 20.3846C3.69377 20.1872 6.242 19.4763 7.88376 17.8889C0.725699 15.5819 -0.509029 7.02714 0.776822 2.56474C0.927805 2.04077 1.63237 2.03805 1.91635 2.50758C4.11209 6.13807 8.28711 8.16504 13.5197 7.69728C13.2933 7.08916 13.17 6.43351 13.17 5.75C13.17 2.57436 15.8325 0 19.117 0C21.1233 0 22.8976 0.960658 23.9747 2.4322L26.2441 2.11875C26.8095 2.04065 27.2041 2.64611 26.8873 3.10561L25.064 5.75Z" fill="white"/>
</svg>
