<svg width="12" height="12" viewBox="0 0 12 12" fill="none" xmlns="http://www.w3.org/2000/svg">
<path fill-rule="evenodd" clip-rule="evenodd" d="M2.7251 0.221396C1.40703 0.395475 0.395475 1.40703 0.221396 2.7251C0.10172 3.63125 0 4.76476 0 6C0 7.23524 0.10172 8.36875 0.221396 9.2749C0.395475 10.593 1.40703 11.6045 2.7251 11.7786C3.63125 11.8983 4.76476 12 6 12C7.23524 12 8.36875 11.8983 9.2749 11.7786C10.593 11.6045 11.6045 10.593 11.7786 9.2749C11.8983 8.36875 12 7.23524 12 6C12 4.76476 11.8983 3.63125 11.7786 2.7251C11.6045 1.40703 10.593 0.395475 9.2749 0.221396C8.36875 0.10172 7.23524 0 6 0C4.76476 0 3.63125 0.10172 2.7251 0.221396ZM6 3C5.66863 3 5.4 3.26863 5.4 3.6V5.4H3.6C3.26863 5.4 3 5.66863 3 6C3 6.33137 3.26863 6.6 3.6 6.6H5.4V8.4C5.4 8.73137 5.66863 9 6 9C6.33137 9 6.6 8.73137 6.6 8.4V6.6H8.4C8.73137 6.6 9 6.33137 9 6C9 5.66863 8.73137 5.4 8.4 5.4H6.6V3.6C6.6 3.26863 6.33137 3 6 3Z" fill="#DAD5E2"/>
</svg>
