<svg width="44" height="44" viewBox="0 0 44 44" fill="none" xmlns="http://www.w3.org/2000/svg">
<path d="M6 10.0003L7.93333 6.14699C8.38667 5.24033 9.30667 4.66699 10.32 4.66699H15.0267C16.04 4.66699 16.96 5.24033 17.4133 6.14699L19.3333 10.0003" stroke="white" stroke-width="2.2" stroke-miterlimit="10" stroke-linecap="round" stroke-linejoin="round"/>
<path d="M16.667 4.66667L18.547 2.78667C19.0537 2.28 19.7337 2 20.4403 2H24.3603C25.3737 2 26.2937 2.57333 26.747 3.48L30.0003 10" stroke="white" stroke-width="2.2" stroke-miterlimit="10" stroke-linecap="round" stroke-linejoin="round"/>
<path d="M27.333 4.66699H33.6797C34.693 4.66699 35.613 5.24033 36.0663 6.14699L37.9997 10.0003" stroke="white" stroke-width="2.2" stroke-miterlimit="10" stroke-linecap="round" stroke-linejoin="round"/>
<path d="M42 10H2V15.3333H42V10Z" stroke="white" stroke-width="2.2" stroke-miterlimit="10" stroke-linecap="round" stroke-linejoin="round"/>
<path d="M39.0398 20.667L38.1332 36.8137C38.0532 38.227 36.8798 39.3337 35.4665 39.3337H32.6665" stroke="white" stroke-width="2.2" stroke-miterlimit="10" stroke-linecap="round" stroke-linejoin="round"/>
<path d="M11.3332 39.3335H8.51984C7.1065 39.3335 5.93317 38.2268 5.85317 36.8135L4.6665 15.3335H39.3332" stroke="white" stroke-width="2.2" stroke-miterlimit="10" stroke-linecap="round" stroke-linejoin="round"/>
<path d="M27.3337 39.333H16.667" stroke="white" stroke-width="2.2" stroke-miterlimit="10" stroke-linecap="round" stroke-linejoin="round"/>
<path d="M14.0002 42.0003C15.4729 42.0003 16.6668 40.8064 16.6668 39.3337C16.6668 37.8609 15.4729 36.667 14.0002 36.667C12.5274 36.667 11.3335 37.8609 11.3335 39.3337C11.3335 40.8064 12.5274 42.0003 14.0002 42.0003Z" stroke="white" stroke-width="2.2" stroke-miterlimit="10" stroke-linecap="round" stroke-linejoin="round"/>
<path d="M29.9997 42.0003C31.4724 42.0003 32.6663 40.8064 32.6663 39.3337C32.6663 37.8609 31.4724 36.667 29.9997 36.667C28.5269 36.667 27.333 37.8609 27.333 39.3337C27.333 40.8064 28.5269 42.0003 29.9997 42.0003Z" stroke="white" stroke-width="2.2" stroke-miterlimit="10" stroke-linecap="round" stroke-linejoin="round"/>
<path d="M22.0002 19.333L15.3335 22.6663L22.0002 25.9997L28.6668 22.6663L22.0002 19.333Z" stroke="white" stroke-width="2.2" stroke-miterlimit="10" stroke-linecap="round" stroke-linejoin="round"/>
<path d="M28.6668 22.6665V30.6665L22.0002 33.9998L15.3335 30.6665V22.6665" stroke="white" stroke-width="2.2" stroke-miterlimit="10" stroke-linecap="round" stroke-linejoin="round"/>
<path d="M22 26V34" stroke="white" stroke-width="2.2" stroke-miterlimit="10" stroke-linecap="round" stroke-linejoin="round"/>
</svg>
