<svg width="50" height="40" viewBox="0 0 50 40" fill="none" xmlns="http://www.w3.org/2000/svg">
<path d="M44.2015 9.88127L43.9478 10.5273L44.4216 11.0344C46.7348 13.5105 48.1345 16.691 48.1345 20.5876C48.1345 28.2502 45.6503 32.7048 41.6554 35.3213C37.5563 38.0061 31.6633 38.9 24.5469 38.9C17.4299 38.9 11.5745 38.0058 7.51211 35.3235C3.5531 32.7095 1.1 28.256 1.1 20.5876C1.1 16.6898 2.50038 13.5124 4.80792 11.0749L5.30494 10.5499L5.02015 9.88534C4.69256 9.12096 3.54323 5.78425 5.1919 1.12855C5.51943 1.12294 6.02013 1.15279 6.70509 1.29745C8.26006 1.62586 10.7743 2.54833 14.3602 5.00185L14.78 5.28909L15.2708 5.15525C18.2167 4.35182 21.3644 4.20932 24.6172 4.20932C27.8701 4.20932 31.0178 4.35182 33.9637 5.15525L34.4545 5.28909L34.8743 5.00185C38.4611 2.54767 40.9771 1.61561 42.5346 1.27875C43.2137 1.13188 43.7122 1.09774 44.0408 1.10012C45.6535 5.74747 44.5132 9.08789 44.2015 9.88127ZM5.12464 26.7067C5.12464 29.3203 5.67144 31.4199 6.74767 33.0714C7.82762 34.7287 9.37549 35.8347 11.1974 36.5711C14.7608 38.0115 19.5884 38.1108 24.6172 38.1108C29.6479 38.1108 34.4754 38.0027 38.0394 36.5526C39.8612 35.8114 41.4082 34.7007 42.4874 33.0408C43.563 31.3865 44.1098 29.2852 44.1098 26.6715C44.1098 23.9359 42.7967 21.4784 40.6219 19.4941C38.6461 17.6869 36.0543 17.3418 33.3848 17.3688C32.1602 17.3812 30.8576 17.4743 29.535 17.5689C29.405 17.5782 29.2749 17.5875 29.1446 17.5968C27.6742 17.7011 26.1657 17.7995 24.6172 17.7995C23.0766 17.7995 21.572 17.7032 20.1023 17.6021C19.992 17.5945 19.8819 17.5869 19.7718 17.5793C18.429 17.4864 17.1047 17.3947 15.8591 17.3863C13.1855 17.3683 10.587 17.7235 8.61281 19.5291C6.47248 21.4788 5.12464 24.0067 5.12464 26.7067ZM14.2878 27.0584C14.2878 25.7354 14.6513 24.5841 15.182 23.7951C15.7174 22.999 16.3387 22.6722 16.8804 22.6722C17.4279 22.6722 18.0483 22.9965 18.5801 23.7837C19.1085 24.566 19.473 25.7159 19.473 27.0584C19.473 28.3963 19.102 29.5567 18.5662 30.3516C18.0232 31.1573 17.4005 31.4797 16.8804 31.4797C16.366 31.4797 15.7425 31.1549 15.1958 30.3402C14.6578 29.5385 14.2878 28.3767 14.2878 27.0584ZM29.7615 27.0584C29.7615 25.7159 30.1259 24.566 30.6544 23.7837C31.1862 22.9965 31.8066 22.6722 32.3541 22.6722C32.9016 22.6722 33.5219 22.9965 34.0538 23.7837C34.5822 24.566 34.9467 25.7159 34.9467 27.0584C34.9467 28.4012 34.582 29.5617 34.0512 30.3543C33.516 31.1537 32.8951 31.4797 32.3541 31.4797C31.8131 31.4797 31.1922 31.1537 30.6569 30.3543C30.1261 29.5617 29.7615 28.4012 29.7615 27.0584Z" stroke="#38004D" stroke-width="2.2"/>
</svg>
