<svg width="85" height="85" viewBox="0 0 85 85" fill="none" xmlns="http://www.w3.org/2000/svg">
<rect x="0.5" y="0.5" width="84" height="84" rx="19.5" stroke="#30125C"/>
<path d="M58.9272 24.1058C57.9768 23.1303 56.5703 22.7669 55.2587 23.1495L24.6752 32.0431C23.2914 32.4275 22.3106 33.5311 22.0464 34.933C21.7765 36.3599 22.7193 38.1711 23.951 38.9285L33.5138 44.8059C34.4946 45.4084 35.7605 45.2573 36.5722 44.4387L47.5225 33.4202C48.0738 32.8464 48.9861 32.8464 49.5374 33.4202C50.0886 33.9748 50.0886 34.8738 49.5374 35.4475L38.568 46.468C37.7544 47.2847 37.6024 48.5566 38.2011 49.5435L44.0441 59.2021C44.7284 60.3497 45.9069 61 47.1994 61C47.3515 61 47.5225 61 47.6746 60.9809C49.1572 60.7896 50.3357 59.7759 50.7729 58.3415L59.8396 27.7971C60.2388 26.4965 59.8776 25.0812 58.9272 24.1058Z" fill="#30125C"/>
</svg>
