<svg width="46" height="35" viewBox="0 0 46 35" fill="none" xmlns="http://www.w3.org/2000/svg">
<path d="M5.23962 3.82212C5.5873 1.99087 7.33533 0.784713 9.14398 1.12809L12.4188 1.74984C14.2275 2.09322 15.4118 3.85611 15.0641 5.68736L14.4346 9.00313C14.0869 10.8344 12.3389 12.0405 10.5303 11.6972L7.25542 11.0754C5.44678 10.732 4.26243 8.96914 4.6101 7.13789L5.23962 3.82212Z" fill="white"/>
<path d="M2.09203 20.401C2.4397 18.5697 4.18774 17.3636 5.99638 17.7069L9.27122 18.3287C11.0799 18.6721 12.2642 20.435 11.9165 22.2662L11.287 25.582C10.9393 27.4132 9.1913 28.6194 7.38266 28.276L4.10783 27.6543C2.29919 27.3109 1.11484 25.548 1.46251 23.7167L2.09203 20.401Z" fill="white"/>
<path d="M37.0437 15.0132C35.2351 14.6699 33.487 15.876 33.1393 17.7073L32.5098 21.023C32.1621 22.8543 33.3465 24.6172 35.1551 24.9606L38.43 25.5823C40.2386 25.9257 41.9867 24.7195 42.3343 22.8883L42.9638 19.5725C43.3115 17.7413 42.1272 15.9784 40.3185 15.635L37.0437 15.0132Z" fill="white"/>
<path d="M19.9764 6.61998C19.0721 6.44829 18.198 7.05137 18.0242 7.96699C17.8504 8.88261 18.4425 9.76406 19.3469 9.93575L20.9843 10.2466C21.8886 10.4183 22.4808 11.2998 22.3069 12.2154L20.4184 22.1627C20.2445 23.0783 19.3705 23.6814 18.4662 23.5097L16.8288 23.1988C15.9245 23.0271 15.0504 23.6302 14.8766 24.5458C14.7028 25.4615 15.2949 26.3429 16.1993 26.5146L17.8367 26.8255C20.5496 27.3405 23.1717 25.5313 23.6932 22.7844L24.3227 19.4687L27.5976 20.0904C28.5019 20.2621 29.3759 19.659 29.5497 18.7434C29.7236 17.8278 29.1314 16.9463 28.2271 16.7746L24.9523 16.1529L25.5818 12.8371C26.1033 10.0903 24.3268 7.44592 21.6138 6.93085L19.9764 6.61998Z" fill="white"/>
</svg>
