<svg width="85" height="85" viewBox="0 0 85 85" fill="none" xmlns="http://www.w3.org/2000/svg">
<rect x="0.5" y="0.5" width="84" height="84" rx="19.5" stroke="#30125C"/>
<path d="M61.531 31.9051C62.5204 46.7469 51.6365 58.6203 37.7841 58.6203C33.0112 58.6203 28.2382 57.9808 24.4937 56.1875C23.6361 55.7768 23.9713 54.6328 24.9201 54.5699C29.5311 54.2641 33.3468 53.1631 35.8052 50.7047C25.0867 47.1318 23.2378 33.883 25.1632 26.972C25.3893 26.1606 26.4443 26.1563 26.8696 26.8835C30.1575 32.5061 36.4092 35.6453 44.2445 34.9209C43.9055 33.979 43.7208 32.9636 43.7208 31.9051C43.7208 26.9869 47.7078 23 52.6259 23C55.6303 23 58.2871 24.4878 59.8999 26.7668L63.298 26.2813C64.1447 26.1604 64.7357 27.098 64.2612 27.8097L61.531 31.9051Z" fill="#30125C"/>
</svg>
