<svg width="13" height="13" viewBox="0 0 13 13" fill="none" xmlns="http://www.w3.org/2000/svg">
<path d="M8.29288 4.7072C9.80989 6.22578 9.78907 8.66046 8.30202 10.1558C8.29922 10.1588 8.29592 10.1621 8.29288 10.1652L6.58663 11.8714C5.08173 13.3763 2.63335 13.3761 1.12867 11.8714C-0.376225 10.3668 -0.376225 7.91809 1.12867 6.41344L2.07082 5.4713C2.32066 5.22146 2.75093 5.38751 2.76383 5.74059C2.78028 6.19057 2.86097 6.64264 3.00986 7.07921C3.06029 7.22703 3.02426 7.39055 2.91381 7.501L2.58152 7.83328C1.86993 8.54488 1.84761 9.70356 2.5522 10.4221C3.26374 11.1477 4.43328 11.1521 5.15029 10.4351L6.85653 8.72906C7.57232 8.01328 7.56932 6.85633 6.85653 6.14354C6.76256 6.04975 6.66791 5.97688 6.59397 5.92597C6.54166 5.89005 6.49847 5.84241 6.46785 5.78683C6.43722 5.73126 6.42001 5.6693 6.41758 5.6059C6.40753 5.33759 6.50259 5.06112 6.7146 4.8491L7.24917 4.31451C7.38935 4.17432 7.60926 4.15711 7.77181 4.27056C7.95797 4.40054 8.13233 4.54665 8.29288 4.7072ZM11.8713 1.1286C10.3666 -0.376098 7.91824 -0.376301 6.41334 1.1286L4.70709 2.83485C4.70405 2.83789 4.70075 2.84119 4.69795 2.84424C3.21093 4.33954 3.19008 6.77422 4.70709 8.2928C4.86763 8.45334 5.04199 8.59944 5.22813 8.72942C5.39069 8.84286 5.61062 8.82562 5.75077 8.68547L6.28535 8.15087C6.49736 7.93886 6.59242 7.66238 6.58237 7.39408C6.57994 7.33067 6.56272 7.26871 6.5321 7.21314C6.50147 7.15757 6.45828 7.10992 6.40598 7.074C6.33204 7.0231 6.23738 6.95023 6.14341 6.85643C5.43062 6.14364 5.42763 4.9867 6.14341 4.27091L7.84966 2.56492C8.56666 1.84791 9.73618 1.85223 10.4478 2.57787C11.1523 3.29642 11.13 4.45509 10.4184 5.16669L10.0861 5.49898C9.97569 5.60943 9.93966 5.77294 9.99008 5.92076C10.139 6.35733 10.2197 6.80941 10.2361 7.25938C10.249 7.61246 10.6793 7.77852 10.9291 7.52867L11.8713 6.58653C13.3762 5.08191 13.3762 2.63324 11.8713 1.1286Z" fill="#30125C"/>
</svg>
