<svg width="34" height="28" viewBox="0 0 34 28" fill="none" xmlns="http://www.w3.org/2000/svg">
<rect width="34" height="28" fill="#E5E5E5"/>
<rect x="-1432" y="-173" width="1920" height="1100" fill="#F9FBFC"/>
<rect x="-33" y="-26" width="286" height="80" rx="27" fill="#CDF55B"/>
<path d="M27.7923 12.5739V14.7029C29.8757 15.7442 31.0864 17.0332 31.0864 18.3143C31.0864 21.2448 25.1912 23.5466 19.3588 24.0316C19.1199 24.0723 18.9049 24.2012 18.7565 24.3928C18.6081 24.5844 18.5371 24.8248 18.5574 25.0663C18.5777 25.3078 18.6879 25.5329 18.8663 25.697C19.0446 25.8611 19.2781 25.9523 19.5204 25.9525C24.5936 25.5346 33.0203 23.3437 33.0203 18.3075C33.0203 15.5611 30.3289 13.6694 27.7923 12.5739Z" fill="#30125C"/>
<path d="M10.6956 20.7435C10.5732 20.6197 10.4197 20.5313 10.2513 20.4874C10.0829 20.4436 9.90576 20.4459 9.73855 20.4942C9.57134 20.5425 9.42025 20.635 9.30118 20.7619C9.1821 20.8889 9.09944 21.0456 9.0619 21.2155L8.63197 23.1717C2.22943 21.452 -0.84458 17.7425 5.23981 14.7029V12.5739C-2.74316 16.0185 -1.49034 22.4864 8.21838 25.0643L7.83402 26.8236C7.79595 26.9955 7.80554 27.1745 7.86174 27.3414C7.91794 27.5083 8.01862 27.6566 8.15293 27.7705C8.28723 27.8844 8.45007 27.9594 8.62389 27.9876C8.79771 28.0157 8.97591 27.9959 9.13929 27.9302L13.9743 25.9964C14.1223 25.9373 14.2534 25.8426 14.3559 25.7207C14.4584 25.5987 14.5292 25.4534 14.562 25.2975C14.5948 25.1415 14.5885 24.9799 14.5437 24.827C14.4989 24.6742 14.417 24.5347 14.3053 24.4211L10.6956 20.7435Z" fill="#30125C"/>
<path d="M16.9408 0.127384C16.7947 0.0439113 16.6293 0 16.461 0C16.2927 0 16.1273 0.0439113 15.9812 0.127384L8.14183 4.65284L16.5152 9.48785L24.892 4.62877L16.9408 0.127384Z" fill="#30125C"/>
<path d="M7.17532 15.384C7.17532 15.5537 7.21997 15.7204 7.3048 15.8674C7.38962 16.0144 7.51162 16.1365 7.65857 16.2215L15.5495 20.7787V11.1672L7.17532 6.33217V15.384Z" fill="#30125C"/>
<path d="M25.8584 15.3839V6.30807L17.4834 11.1663V20.777L25.3743 16.2197C25.5211 16.135 25.6431 16.0132 25.728 15.8665C25.813 15.7198 25.8579 15.5534 25.8584 15.3839Z" fill="#30125C"/>
</svg>
